<svg width="16" height="17" viewBox="0 0 16 17" fill="none" xmlns="http://www.w3.org/2000/svg">
<path d="M13.9997 8.33334H1.99967C1.35967 8.33334 0.833008 7.80667 0.833008 7.16667V4.95333C0.833008 4.5 1.14632 4.04 1.56632 3.87334L7.56633 1.47335C7.81966 1.37335 8.17969 1.37335 8.43302 1.47335L14.433 3.87334C14.853 4.04 15.1663 4.50667 15.1663 4.95333V7.16667C15.1663 7.80667 14.6397 8.33334 13.9997 8.33334ZM7.99967 2.39336C7.97301 2.39336 7.94636 2.39332 7.93302 2.39999L1.93966 4.80001C1.89966 4.82001 1.83301 4.90667 1.83301 4.95333V7.16667C1.83301 7.26001 1.90634 7.33334 1.99967 7.33334H13.9997C14.093 7.33334 14.1663 7.26001 14.1663 7.16667V4.95333C14.1663 4.90667 14.1064 4.82001 14.0597 4.80001L8.05969 2.39999C8.04636 2.39332 8.02634 2.39336 7.99967 2.39336Z" fill="white"/>
<path d="M14.6663 15.6667H1.33301C1.05967 15.6667 0.833008 15.44 0.833008 15.1667V13.1667C0.833008 12.5267 1.35967 12 1.99967 12H13.9997C14.6397 12 15.1663 12.5267 15.1663 13.1667V15.1667C15.1663 15.44 14.9397 15.6667 14.6663 15.6667ZM1.83301 14.6667H14.1663V13.1667C14.1663 13.0733 14.093 13 13.9997 13H1.99967C1.90634 13 1.83301 13.0733 1.83301 13.1667V14.6667Z" fill="white"/>
<path d="M2.66699 13C2.39366 13 2.16699 12.7733 2.16699 12.5V7.83334C2.16699 7.56 2.39366 7.33334 2.66699 7.33334C2.94033 7.33334 3.16699 7.56 3.16699 7.83334V12.5C3.16699 12.7733 2.94033 13 2.66699 13Z" fill="white"/>
<path d="M5.33301 13C5.05967 13 4.83301 12.7733 4.83301 12.5V7.83334C4.83301 7.56 5.05967 7.33334 5.33301 7.33334C5.60634 7.33334 5.83301 7.56 5.83301 7.83334V12.5C5.83301 12.7733 5.60634 13 5.33301 13Z" fill="white"/>
<path d="M8 13C7.72667 13 7.5 12.7733 7.5 12.5V7.83334C7.5 7.56 7.72667 7.33334 8 7.33334C8.27333 7.33334 8.5 7.56 8.5 7.83334V12.5C8.5 12.7733 8.27333 13 8 13Z" fill="white"/>
<path d="M10.667 13C10.3937 13 10.167 12.7733 10.167 12.5V7.83334C10.167 7.56 10.3937 7.33334 10.667 7.33334C10.9403 7.33334 11.167 7.56 11.167 7.83334V12.5C11.167 12.7733 10.9403 13 10.667 13Z" fill="white"/>
<path d="M13.333 13C13.0597 13 12.833 12.7733 12.833 12.5V7.83334C12.833 7.56 13.0597 7.33334 13.333 7.33334C13.6063 7.33334 13.833 7.56 13.833 7.83334V12.5C13.833 12.7733 13.6063 13 13.333 13Z" fill="white"/>
<path d="M15.3337 15.6667H0.666992C0.393659 15.6667 0.166992 15.44 0.166992 15.1667C0.166992 14.8933 0.393659 14.6667 0.666992 14.6667H15.3337C15.607 14.6667 15.8337 14.8933 15.8337 15.1667C15.8337 15.44 15.607 15.6667 15.3337 15.6667Z" fill="white"/>
<path d="M8 6.66666C7.17333 6.66666 6.5 5.99333 6.5 5.16666C6.5 4.34 7.17333 3.66666 8 3.66666C8.82667 3.66666 9.5 4.34 9.5 5.16666C9.5 5.99333 8.82667 6.66666 8 6.66666ZM8 4.66666C7.72667 4.66666 7.5 4.89333 7.5 5.16666C7.5 5.44 7.72667 5.66666 8 5.66666C8.27333 5.66666 8.5 5.44 8.5 5.16666C8.5 4.89333 8.27333 4.66666 8 4.66666Z" fill="white"/>
</svg>
