<svg width="16" height="16" viewBox="0 0 16 16" fill="none" xmlns="http://www.w3.org/2000/svg">
<g clip-path="url(#clip0_138_5723)">
<path d="M1 2.82812C1.885 2.45812 3.154 2.05912 4.388 1.93512C5.718 1.80112 6.846 1.99812 7.5 2.68712V12.4331C6.565 11.9031 5.38 11.8301 4.287 11.9401C3.107 12.0601 1.917 12.4011 1 12.7511V2.82812ZM8.5 2.68712C9.154 1.99812 10.282 1.80112 11.612 1.93512C12.846 2.05912 14.115 2.45812 15 2.82812V12.7511C14.082 12.4011 12.893 12.0591 11.713 11.9411C10.619 11.8301 9.435 11.9021 8.5 12.4331V2.68712ZM8 1.78312C7.015 0.936125 5.587 0.810125 4.287 0.940125C2.773 1.09312 1.245 1.61213 0.293 2.04513C0.205649 2.08485 0.131575 2.14888 0.079621 2.22956C0.0276667 2.31024 2.65714e-05 2.40416 0 2.50012L0 13.5001C2.3162e-05 13.5838 0.0210371 13.6661 0.0611171 13.7395C0.101197 13.813 0.159062 13.8752 0.229411 13.9204C0.29976 13.9657 0.380345 13.9926 0.463783 13.9987C0.547222 14.0047 0.630848 13.9898 0.707 13.9551C1.589 13.5551 3.01 13.0741 4.387 12.9351C5.796 12.7931 6.977 13.0221 7.61 13.8121C7.65685 13.8705 7.71622 13.9177 7.78372 13.95C7.85122 13.9824 7.92513 13.9992 8 13.9992C8.07487 13.9992 8.14878 13.9824 8.21628 13.95C8.28378 13.9177 8.34315 13.8705 8.39 13.8121C9.023 13.0221 10.204 12.7931 11.612 12.9351C12.99 13.0741 14.412 13.5551 15.293 13.9551C15.3692 13.9898 15.4528 14.0047 15.5362 13.9987C15.6197 13.9926 15.7002 13.9657 15.7706 13.9204C15.8409 13.8752 15.8988 13.813 15.9389 13.7395C15.979 13.6661 16 13.5838 16 13.5001V2.50012C16 2.40416 15.9723 2.31024 15.9204 2.22956C15.8684 2.14888 15.7944 2.08485 15.707 2.04513C14.755 1.61213 13.227 1.09312 11.713 0.940125C10.413 0.809125 8.985 0.936125 8 1.78312Z" fill="white"/>
</g>
<defs>
<clipPath id="clip0_138_5723">
<rect width="16" height="16" fill="white"/>
</clipPath>
</defs>
</svg>
