<svg width="4" height="12" viewBox="0 0 4 12" fill="none" xmlns="http://www.w3.org/2000/svg">
<path d="M3.11246 1.49606C3.11246 1.64218 3.08368 1.78686 3.02776 1.92185C2.97185 2.05684 2.88989 2.17949 2.78658 2.28281C2.68326 2.38612 2.56061 2.46808 2.42562 2.52399C2.29063 2.57991 2.14594 2.60869 1.99983 2.60869C1.85372 2.60869 1.70904 2.57991 1.57405 2.52399C1.43906 2.46808 1.3164 2.38612 1.21309 2.28281C1.10977 2.17949 1.02782 2.05684 0.9719 1.92185C0.915986 1.78686 0.887207 1.64218 0.887207 1.49606C0.887207 1.20098 1.00443 0.917976 1.21309 0.709318C1.42175 0.500661 1.70475 0.383438 1.99983 0.383438C2.29492 0.383438 2.57792 0.500661 2.78658 0.709318C2.99523 0.917976 3.11246 1.20098 3.11246 1.49606ZM1.92108 3.732C2.46502 3.732 2.90546 4.17244 2.90546 4.71638V10.6733C2.90546 10.9343 2.80175 11.1847 2.61714 11.3693C2.43253 11.5539 2.18215 11.6576 1.92108 11.6576C1.66001 11.6576 1.40963 11.5539 1.22502 11.3693C1.04042 11.1847 0.936707 10.9343 0.936707 10.6733V4.71638C0.936707 4.17244 1.37771 3.732 1.92108 3.732Z" fill="black" fill-opacity="0.6"/>
</svg>
