<svg width="21" height="22" viewBox="0 0 21 22" fill="none" xmlns="http://www.w3.org/2000/svg">
<path d="M10.4996 2.98606e-07C11.8723 -0.000416416 13.2089 0.435332 14.3133 1.24329C15.4177 2.05125 16.2318 3.18886 16.636 4.48915C17.0402 5.78945 17.0133 7.18395 16.5592 8.46797C16.1051 9.75199 15.2478 10.8579 14.113 11.6234C16.0826 12.3395 17.791 13.6236 19.0182 15.3104C20.2454 16.9971 20.9352 19.0093 20.9989 21.088C21.0048 21.2034 20.9875 21.3188 20.9478 21.4274C20.9082 21.5361 20.847 21.6358 20.768 21.7207C20.689 21.8056 20.5936 21.874 20.4876 21.9219C20.3815 21.9698 20.2669 21.9962 20.1504 21.9996C20.0339 22.003 19.9178 21.9833 19.8091 21.9417C19.7004 21.9 19.6012 21.8373 19.5173 21.7571C19.4333 21.6769 19.3664 21.5809 19.3204 21.4748C19.2744 21.3686 19.2503 21.2545 19.2494 21.1389C19.1799 18.8846 18.2276 16.7458 16.5944 15.1756C14.9612 13.6054 12.7754 12.7272 10.5002 12.7272C8.225 12.7272 6.0392 13.6054 4.40599 15.1756C2.77279 16.7458 1.82055 18.8846 1.75104 21.1389C1.74408 21.369 1.64518 21.587 1.4761 21.7448C1.30702 21.9027 1.08161 21.9875 0.849459 21.9806C0.617309 21.9737 0.397433 21.8756 0.238203 21.708C0.0789721 21.5404 -0.00657025 21.317 0.00039426 21.0869C0.0642908 19.0084 0.754218 16.9964 1.98138 15.3099C3.20855 13.6234 4.9168 12.3394 6.88628 11.6234C5.7515 10.8579 4.89414 9.75199 4.44004 8.46797C3.98595 7.18395 3.95904 5.78945 4.36326 4.48915C4.76748 3.18886 5.58154 2.05125 6.68596 1.24329C7.79039 0.435332 9.127 -0.000416416 10.4996 2.98606e-07ZM5.83123 6.36296C5.83123 7.59028 6.32307 8.76733 7.19857 9.63518C8.07406 10.503 9.26149 10.9906 10.4996 10.9906C11.7378 10.9906 12.9252 10.503 13.8007 9.63518C14.6762 8.76733 15.168 7.59028 15.168 6.36296C15.168 5.13565 14.6762 3.95859 13.8007 3.09075C12.9252 2.2229 11.7378 1.73535 10.4996 1.73535C9.26149 1.73535 8.07406 2.2229 7.19857 3.09075C6.32307 3.95859 5.83123 5.13565 5.83123 6.36296Z" fill="#6C757D"/>
</svg>
