<svg width="16" height="17" viewBox="0 0 16 17" fill="none" xmlns="http://www.w3.org/2000/svg">
<path d="M8 11C6.62 11 5.5 9.88 5.5 8.5C5.5 7.12 6.62 6 8 6C9.38 6 10.5 7.12 10.5 8.5C10.5 9.88 9.38 11 8 11ZM8 7C7.17333 7 6.5 7.67333 6.5 8.5C6.5 9.32667 7.17333 10 8 10C8.82667 10 9.5 9.32667 9.5 8.5C9.5 7.67333 8.82667 7 8 7Z" fill="white"/>
<path d="M10.14 15.2932C10 15.2932 9.86004 15.2732 9.72004 15.2399C9.30671 15.1265 8.96004 14.8665 8.74004 14.4999L8.66004 14.3665C8.26671 13.6865 7.72671 13.6865 7.33337 14.3665L7.26004 14.4932C7.04004 14.8665 6.69337 15.1332 6.28004 15.2399C5.86004 15.3532 5.42671 15.2932 5.06004 15.0732L3.91337 14.4132C3.50671 14.1799 3.21337 13.7999 3.08671 13.3399C2.96671 12.8799 3.02671 12.4065 3.26004 11.9999C3.45337 11.6599 3.50671 11.3532 3.39337 11.1599C3.28004 10.9665 2.99337 10.8532 2.60004 10.8532C1.62671 10.8532 0.833374 10.0599 0.833374 9.08653V7.9132C0.833374 6.93987 1.62671 6.14653 2.60004 6.14653C2.99337 6.14653 3.28004 6.0332 3.39337 5.83987C3.50671 5.64653 3.46004 5.33987 3.26004 4.99987C3.02671 4.5932 2.96671 4.1132 3.08671 3.65987C3.20671 3.19987 3.50004 2.81987 3.91337 2.58653L5.06671 1.92653C5.82004 1.47987 6.81337 1.73987 7.26671 2.50653L7.34671 2.63987C7.74004 3.31987 8.28004 3.31987 8.67337 2.63987L8.74671 2.5132C9.20004 1.73987 10.1934 1.47987 10.9534 1.9332L12.1 2.5932C12.5067 2.82653 12.8 3.20653 12.9267 3.66653C13.0467 4.12653 12.9867 4.59987 12.7534 5.00653C12.56 5.34653 12.5067 5.6532 12.62 5.84653C12.7334 6.03987 13.02 6.1532 13.4134 6.1532C14.3867 6.1532 15.18 6.94653 15.18 7.91987V9.0932C15.18 10.0665 14.3867 10.8599 13.4134 10.8599C13.02 10.8599 12.7334 10.9732 12.62 11.1665C12.5067 11.3599 12.5534 11.6665 12.7534 12.0065C12.9867 12.4132 13.0534 12.8932 12.9267 13.3465C12.8067 13.8065 12.5134 14.1865 12.1 14.4199L10.9467 15.0799C10.6934 15.2199 10.42 15.2932 10.14 15.2932ZM8.00004 12.8265C8.59337 12.8265 9.14671 13.1999 9.52671 13.8599L9.60004 13.9865C9.68004 14.1265 9.81337 14.2265 9.97337 14.2665C10.1334 14.3065 10.2934 14.2865 10.4267 14.2065L11.58 13.5399C11.7534 13.4399 11.8867 13.2732 11.94 13.0732C11.9934 12.8732 11.9667 12.6665 11.8667 12.4932C11.4867 11.8399 11.44 11.1665 11.7334 10.6532C12.0267 10.1399 12.6334 9.84653 13.3934 9.84653C13.82 9.84653 14.16 9.50653 14.16 9.07987V7.90653C14.16 7.48653 13.82 7.13987 13.3934 7.13987C12.6334 7.13987 12.0267 6.84653 11.7334 6.3332C11.44 5.81987 11.4867 5.14653 11.8667 4.4932C11.9667 4.31987 11.9934 4.1132 11.94 3.9132C11.8867 3.7132 11.76 3.5532 11.5867 3.44653L10.4334 2.78653C10.1467 2.6132 9.76671 2.7132 9.59337 3.00653L9.52004 3.1332C9.14004 3.7932 8.58671 4.16653 7.99337 4.16653C7.40004 4.16653 6.84671 3.7932 6.46671 3.1332L6.39337 2.99987C6.22671 2.71987 5.85337 2.61987 5.56671 2.78653L4.41337 3.4532C4.24004 3.5532 4.10671 3.71987 4.05337 3.91987C4.00004 4.11987 4.02671 4.32653 4.12671 4.49987C4.50671 5.1532 4.55337 5.82653 4.26004 6.33987C3.96671 6.8532 3.36004 7.14653 2.60004 7.14653C2.17337 7.14653 1.83337 7.48653 1.83337 7.9132V9.08653C1.83337 9.50653 2.17337 9.8532 2.60004 9.8532C3.36004 9.8532 3.96671 10.1465 4.26004 10.6599C4.55337 11.1732 4.50671 11.8465 4.12671 12.4999C4.02671 12.6732 4.00004 12.8799 4.05337 13.0799C4.10671 13.2799 4.23337 13.4399 4.40671 13.5465L5.56004 14.2065C5.70004 14.2932 5.86671 14.3132 6.02004 14.2732C6.18004 14.2332 6.31337 14.1265 6.40004 13.9865L6.47337 13.8599C6.85337 13.2065 7.40671 12.8265 8.00004 12.8265Z" fill="white"/>
</svg>
