<svg width="16" height="17" viewBox="0 0 16 17" fill="none" xmlns="http://www.w3.org/2000/svg">
<path d="M8.00622 11.8333C7.43956 11.8333 6.86622 11.6867 6.41956 11.4L2.40622 8.77999C1.65956 8.29333 1.21289 7.47333 1.21289 6.57999C1.21289 5.68666 1.65956 4.86666 2.40622 4.37999L6.42622 1.76666C7.31956 1.18666 8.71289 1.18666 9.59956 1.77333L13.5929 4.39333C14.3329 4.87999 14.7796 5.69999 14.7796 6.58666C14.7796 7.47333 14.3329 8.29333 13.5929 8.77999L9.59956 11.4C9.15289 11.6933 8.57956 11.8333 8.00622 11.8333ZM8.00622 2.33333C7.62622 2.33333 7.24622 2.41999 6.97289 2.60666L2.95956 5.21999C2.49289 5.52666 2.21956 6.01999 2.21956 6.57999C2.21956 7.13999 2.48622 7.63333 2.95956 7.93999L6.97289 10.56C7.52622 10.92 8.49956 10.92 9.05289 10.56L13.0462 7.93999C13.5129 7.63333 13.7796 7.13999 13.7796 6.57999C13.7796 6.01999 13.5129 5.52666 13.0462 5.21999L9.05289 2.59999C8.77289 2.42666 8.39289 2.33333 8.00622 2.33333Z" fill="white"/>
<path d="M8.00045 15.6667C7.70711 15.6667 7.40711 15.6267 7.16711 15.5467L5.04045 14.84C4.03378 14.5067 3.24045 13.4067 3.24711 12.3467L3.25378 9.22C3.25378 8.94667 3.48045 8.72 3.75378 8.72C4.02711 8.72 4.25378 8.94667 4.25378 9.22L4.24711 12.3467C4.24711 12.9733 4.76711 13.6933 5.36045 13.8933L7.48711 14.6C7.75378 14.6867 8.24711 14.6867 8.51378 14.6L10.6404 13.8933C11.2338 13.6933 11.7538 12.9733 11.7538 12.3533V9.26C11.7538 8.98667 11.9804 8.76 12.2538 8.76C12.5271 8.76 12.7538 8.98667 12.7538 9.26V12.3533C12.7538 13.4133 11.9671 14.5067 10.9604 14.8467L8.83378 15.5533C8.59378 15.6267 8.29378 15.6667 8.00045 15.6667Z" fill="white"/>
<path d="M14.2666 11C13.9933 11 13.7666 10.7733 13.7666 10.5V6.5C13.7666 6.22667 13.9933 6 14.2666 6C14.5399 6 14.7666 6.22667 14.7666 6.5V10.5C14.7666 10.7733 14.5399 11 14.2666 11Z" fill="white"/>
</svg>
